# xmcd
#
# Track frame offsets:
#      150
#      15283
#      30254
#      49220
#      65486
#      82265
#      97506
#      115122
#      128500
#      145225
#      156795
#      171874
#      187061
#      205973
# 
# Disc length: 2901 seconds
#
# Revision: 1
# Processed by: cddbd v1.4PL0 Copyright (c) Steve Scherf et al.
#
# Submitted via: FreeRIP 1.20
#
DISCID=b00b530e
DTITLE=Modas de Viola - Especial nº 2
DYEAR=2000
DGENRE=Country
TTITLE0=Dino Franco and Mourai - Caboclo na Cidade
TTITLE1=Tião Carreiro and Pardinho - Boi Soberano
TTITLE2=Jacó and Jacozinho - Velho Valente
TTITLE3=Zé Carreirro and Carreirinho - Preto Fingido
TTITLE4=André and Andrade - Passado de Um Boiadeiro
TTITLE5=Tião Carreiro and Pardinho - O Mineiro e o Italiano
TTITLE6=Cacique and Pagé - Velho Berrante
TTITLE7=Dino Franco and Mourai - Retrato do Boi Soberano
TTITLE8=Tião Carreiro and Pardinho - Ferreirinha
TTITLE9=Zé Carreiro and Carreirinho - Bombardeio
TTITLE10=Camões and Camargo - Arribata Perigosa
TTITLE11=Tião Carreiro and Pardinho - Catimbau
TTITLE12=André and Andrade - Mataria
TTITLE13=Dino Franco and Mourai - A Volta do Caboclo
EXTD=YEAR: 2000
EXTT0=
EXTT1=
EXTT2=
EXTT3=
EXTT4=
EXTT5=
EXTT6=
EXTT7=
EXTT8=
EXTT9=
EXTT10=
EXTT11=
EXTT12=
EXTT13=
PLAYORDER=
